<?xml version="1.0" encoding="UTF-8" standalone="no"?>
<svg
   xmlns:dc="http://purl.org/dc/elements/1.1/"
   xmlns:cc="http://creativecommons.org/ns#"
   xmlns:rdf="http://www.w3.org/1999/02/22-rdf-syntax-ns#"
   xmlns:svg="http://www.w3.org/2000/svg"
   xmlns="http://www.w3.org/2000/svg"
   width="450"
   height="450"
   viewBox="0 0 119.06249 119.06269"
   version="1.1"
   id="svg8">
  <defs
     id="defs2" />
  <metadata
     id="metadata5">
    <rdf:RDF>
      <cc:Work
         rdf:about="">
        <dc:format>image/svg+xml</dc:format>
        <dc:type
           rdf:resource="http://purl.org/dc/dcmitype/StillImage" />
        <dc:title></dc:title>
      </cc:Work>
    </rdf:RDF>
  </metadata>
  <g
     id="layer1"
     style="display:inline">
    <circle
       style="fill:#facb2e;fill-opacity:1;stroke:#393e41;stroke-width:2.8918;stroke-miterlimit:4;stroke-dasharray:none;stroke-opacity:1"
       id="path835"
       cx="58.496906"
       cy="58.414845"
       r="48.5541" />
  </g>
  <g
     id="layer2">
    <path
       style="fill:#393e41;fill-opacity:1;stroke:#393e41;stroke-width:5.00001;stroke-miterlimit:4;stroke-dasharray:none;stroke-opacity:1"
       d="M 45.247137,69.690836 C 19.460209,38.933243 16.950679,35.87934 17.151488,35.500621 c 0.121278,-0.228727 0.775329,-1.252326 1.453447,-2.274671 4.607273,-6.946002 10.817708,-12.398681 18.430009,-16.1813 2.545048,-1.264657 3.034255,-1.447277 3.251888,-1.213934 0.140896,0.151065 13.087588,15.583434 28.770428,34.294153 l 28.514264,34.019492 -1.08603,1.591297 c -1.66546,2.440308 -3.072293,4.131845 -5.36677,6.452857 -3.634206,3.676245 -7.228946,6.342335 -11.668808,8.654355 -1.77624,0.92496 -5.617553,2.64458 -5.862298,2.62433 -0.01339,-0.001 -12.766596,-15.200469 -28.340481,-33.776364 z"
       id="path864" />
    <path
       style="fill:#393e41;fill-opacity:1;stroke:#393e41;stroke-width:0.264583px;stroke-linecap:butt;stroke-linejoin:miter;stroke-opacity:1"
       d="M 13.192508,80.317515 2.1240935,103.00776 28.964991,98.580401"
       id="path866" />
    <ellipse
       style="fill:#ffda61;fill-opacity:1;stroke:#393e41;stroke-width:1.80737;stroke-miterlimit:4;stroke-dasharray:none;stroke-opacity:1"
       id="path868"
       cx="92.538971"
       cy="27.644796"
       rx="19.096315"
       ry="19.096317" />
    <ellipse
       style="fill:#f6f7eb;fill-opacity:1;stroke:#393e41;stroke-width:1.5;stroke-miterlimit:4;stroke-dasharray:none;stroke-opacity:1"
       id="path870"
       cx="94.027504"
       cy="14.696528"
       rx="9.0375195"
       ry="9.0375204" />
    <ellipse
       style="fill:#393e41;fill-opacity:1;stroke:#393e41;stroke-width:2.08385;stroke-miterlimit:4;stroke-dasharray:none;stroke-opacity:1"
       id="path872"
       cx="93.484261"
       cy="14.397731"
       rx="3.9580774"
       ry="3.958076" />
    <circle
       style="fill:#f6f7eb;fill-opacity:1;stroke:#393e41;stroke-width:0;stroke-miterlimit:4;stroke-dasharray:none;stroke-opacity:1"
       id="path874"
       cx="90.896255"
       cy="10.831416"
       r="2.4999993" />
    <ellipse
       style="fill:#f6f7eb;fill-opacity:1;stroke:#393e41;stroke-width:0;stroke-miterlimit:4;stroke-dasharray:none;stroke-opacity:1"
       id="path874-2"
       cx="94.337921"
       cy="13.050172"
       rx="0.99999988"
       ry="0.9999997" />
    <ellipse
       style="fill:#f6f7eb;fill-opacity:1;stroke:#393e41;stroke-width:1.5;stroke-miterlimit:4;stroke-dasharray:none;stroke-opacity:1"
       id="path870-8"
       cx="107.96082"
       cy="29.078724"
       rx="9.0375195"
       ry="9.0375204" />
    <ellipse
       style="fill:#393e41;fill-opacity:1;stroke:#393e41;stroke-width:2.08385;stroke-miterlimit:4;stroke-dasharray:none;stroke-opacity:1"
       id="path872-1"
       cx="107.41756"
       cy="28.77993"
       rx="3.9580774"
       ry="3.958076" />
    <circle
       style="fill:#f6f7eb;fill-opacity:1;stroke:#393e41;stroke-width:0;stroke-miterlimit:4;stroke-dasharray:none;stroke-opacity:1"
       id="path874-9"
       cx="104.82958"
       cy="25.213585"
       r="2.4999993" />
    <ellipse
       style="fill:#f6f7eb;fill-opacity:1;stroke:#393e41;stroke-width:0;stroke-miterlimit:4;stroke-dasharray:none;stroke-opacity:1"
       id="path874-2-1"
       cx="108.27122"
       cy="27.432354"
       rx="0.99999988"
       ry="0.9999997" />
    <path
       style="fill:#facb2e;fill-opacity:1;stroke:none;stroke-width:0.0978318"
       d="m 87.371883,45.020667 c -1.339897,-0.413398 -2.303862,-0.810143 -3.375197,-1.389152 -5.188656,-2.804237 -8.684307,-7.86352 -9.437478,-13.658929 -0.156797,-1.206511 -0.194657,-2.939103 -0.08678,-3.971243 l 0.06326,-0.6053 0.269902,1.05565 c 1.103722,4.316929 3.464406,8.523777 7.097863,12.648721 1.726909,1.960502 4.124708,4.151344 6.195031,5.660332 0.983009,0.716481 0.87658,0.754554 -0.72661,0.259921 z"
       id="path930" />
    <path
       style="fill:none;stroke:#393e41;stroke-width:2;stroke-linecap:round;stroke-linejoin:round;stroke-miterlimit:4;stroke-dasharray:none;stroke-opacity:1"
       d="m 81.539932,25.805599 c -2.075324,5.326674 2.905459,12.106072 9.269794,11.89854"
       id="path932" />
  </g>
</svg>
